<?xml version="1.0" encoding="utf-8"?>
<!-- Generator: Adobe Illustrator 25.3.1, SVG Export Plug-In . SVG Version: 6.00 Build 0)  -->
<svg version="1.1" id="Group_6405" xmlns="http://www.w3.org/2000/svg" xmlns:xlink="http://www.w3.org/1999/xlink" x="0px" y="0px"
	 viewBox="0 0 71.4 37.7" style="enable-background:new 0 0 71.4 37.7;" xml:space="preserve">
<style type="text/css">
	.st0{fill:#D8B855;}
	.st1{fill:#463A3B;}
	.st2{fill:#333333;}
</style>
<g>
	<path class="st0" d="M27.4,1.5c1.3,1.1,2.6,2.1,3.9,3.2c-0.1,0.5-0.3,1-0.5,1.8c1-0.1,1.8-0.2,2.5-0.3c-0.1-0.7-0.3-1.3-0.5-2.2
		c0.9-1.1,1.8-2.3,3-3.7c1.1,1.3,2.1,2.4,3,3.6C39,4.1,38.8,4.7,38.6,5c-0.6,1.2-0.5,1.5,0.9,1.5c0.4,0,0.8-0.1,1.3-0.1
		c-0.2-1.7-0.2-1.7,1.1-2.7c0.8-0.7,1.6-1.3,2.4-1.9c0,0,0.1,0,0.4,0c-0.2,1.3-0.4,2.7-0.5,4C44,7,43.9,8.3,43.7,9.6
		c-0.1,0.3-0.5,0.7-0.8,0.7c-4.6,0-9.3,0-13.9,0c-0.3,0-0.9-0.3-0.9-0.5c-0.4-2.7-0.7-5.4-1-8.1C27.2,1.6,27.3,1.6,27.4,1.5z"/>
	<path class="st0" d="M35.8,12.7c-2.2,0-4.4,0-6.6,0c-0.6,0-1.2,0-1-0.8c0.1-0.3,0.6-0.7,0.9-0.7c4.4,0,8.9,0,13.3,0
		c0.3,0,0.8,0,1,0.2c0.2,0.2,0.2,0.6,0.1,0.9c-0.1,0.2-0.5,0.3-0.8,0.3C40.4,12.7,38.1,12.7,35.8,12.7
		C35.8,12.7,35.8,12.7,35.8,12.7z"/>
	<g>
		<path class="st1" d="M20.5,35.9v1.3h-0.5v-1.3l-1-1.9h0.5l0.7,1.5L21,34h0.5L20.5,35.9z"/>
		<path class="st1" d="M22.2,37.3c0,0-0.1,0-0.2-0.1c-0.2-0.1-0.3-0.2-0.3-0.4c-0.1-0.2-0.1-0.3-0.1-0.6V36c0-0.2,0-0.4,0.1-0.6
			c0.1-0.2,0.2-0.3,0.3-0.4c0.1-0.1,0.3-0.1,0.5-0.1c0.2,0,0.4,0,0.5,0.1c0.1,0.1,0.2,0.2,0.3,0.4c0.1,0.2,0.1,0.4,0.1,0.7v0.2h-1.5
			v-0.4H23c0-0.2-0.1-0.3-0.1-0.4c-0.1-0.1-0.2-0.2-0.3-0.2c-0.2,0-0.3,0.1-0.4,0.2c-0.1,0.1-0.1,0.3-0.1,0.5v0.3
			c0,0.2,0.1,0.3,0.2,0.4c0.1,0.1,0.2,0.2,0.4,0.2c0.1,0,0.2,0,0.3-0.1c0.1,0,0.2-0.1,0.2-0.2l0.3,0.3c-0.1,0.1-0.2,0.2-0.4,0.3
			c-0.1,0.1-0.3,0.1-0.4,0.1C22.3,37.3,22.2,37.3,22.2,37.3z"/>
		<path class="st1" d="M24.6,37.3c0,0-0.1,0-0.2,0c-0.1,0-0.2-0.1-0.3-0.1C24,37,23.9,37,23.8,36.9l0.3-0.3c0.1,0.1,0.2,0.2,0.4,0.2
			c0.1,0,0.2,0.1,0.4,0.1c0.2,0,0.3,0,0.4-0.1c0.1-0.1,0.1-0.1,0.1-0.2c0-0.1,0-0.1-0.1-0.2c0,0-0.1-0.1-0.2-0.1c-0.1,0-0.2,0-0.3,0
			c0,0,0,0,0,0c0,0,0,0,0,0c0,0,0,0,0,0c0,0,0,0,0,0c-0.1,0-0.3,0-0.4-0.1c-0.1,0-0.2-0.1-0.3-0.2c-0.1-0.1-0.1-0.2-0.1-0.4
			c0-0.2,0-0.3,0.1-0.4c0.1-0.1,0.2-0.2,0.3-0.2c0.1-0.1,0.3-0.1,0.5-0.1c0.1,0,0.2,0,0.3,0c0.1,0,0.2,0.1,0.3,0.1
			c0.1,0,0.2,0.1,0.3,0.2l-0.3,0.3c-0.1-0.1-0.2-0.1-0.3-0.2c-0.1,0-0.2-0.1-0.3-0.1c-0.2,0-0.3,0-0.3,0.1c-0.1,0.1-0.1,0.1-0.1,0.2
			c0,0.1,0,0.1,0.1,0.1c0,0,0.1,0.1,0.2,0.1c0.1,0,0.2,0,0.3,0c0,0,0,0,0,0c0,0,0,0,0,0c0,0,0,0,0,0s0,0,0,0c0.2,0,0.3,0,0.4,0.1
			c0.1,0,0.2,0.1,0.3,0.2c0.1,0.1,0.1,0.2,0.1,0.4c0,0.2,0,0.3-0.1,0.4c-0.1,0.1-0.2,0.2-0.3,0.2c-0.1,0.1-0.3,0.1-0.5,0.1
			C24.7,37.3,24.6,37.3,24.6,37.3z"/>
		<path class="st1" d="M26.3,36.8h0.5v0.5l-0.5,0.4V36.8z"/>
		<path class="st0" d="M29.6,34h0.3l0.7,2.5l0.6-2.5h0.5l-0.8,3.2h-0.5L29.7,35l-0.6,2.2h-0.5L27.9,34h0.5l0.6,2.5L29.6,34z"/>
		<path class="st0" d="M32.4,37.3c0,0-0.1,0-0.2-0.1c-0.2-0.1-0.3-0.2-0.3-0.4c-0.1-0.2-0.1-0.3-0.1-0.6V36c0-0.2,0-0.4,0.1-0.6
			c0.1-0.2,0.2-0.3,0.3-0.4c0.1-0.1,0.3-0.1,0.5-0.1c0.2,0,0.4,0,0.5,0.1c0.1,0.1,0.2,0.2,0.3,0.4c0.1,0.2,0.1,0.4,0.1,0.7v0.2h-1.5
			v-0.4h1.1c0-0.2-0.1-0.3-0.1-0.4c-0.1-0.1-0.2-0.2-0.3-0.2c-0.2,0-0.3,0.1-0.4,0.2c-0.1,0.1-0.1,0.3-0.1,0.5v0.3
			c0,0.2,0.1,0.3,0.2,0.4c0.1,0.1,0.2,0.2,0.4,0.2c0.1,0,0.2,0,0.3-0.1c0.1,0,0.2-0.1,0.2-0.2l0.3,0.3c-0.1,0.1-0.2,0.2-0.4,0.3
			c-0.1,0.1-0.3,0.1-0.4,0.1C32.5,37.3,32.4,37.3,32.4,37.3z"/>
		<path class="st0" d="M35.8,37.3c0,0-0.1,0-0.3-0.1c-0.2-0.1-0.3-0.2-0.4-0.4C35,36.5,35,36.3,35,36.1v-0.9c0-0.2,0-0.4,0.1-0.6
			c0.1-0.2,0.2-0.3,0.4-0.4c0.2-0.1,0.4-0.1,0.6-0.1c0.2,0,0.4,0,0.5,0.1c0.2,0.1,0.3,0.2,0.4,0.3c0.1,0.1,0.2,0.3,0.2,0.5h-0.5
			c0-0.1-0.1-0.2-0.1-0.3c-0.1-0.1-0.1-0.1-0.2-0.2c-0.1,0-0.2-0.1-0.3-0.1c-0.1,0-0.2,0-0.3,0.1c-0.1,0.1-0.2,0.2-0.2,0.3
			c-0.1,0.1-0.1,0.2-0.1,0.4v0.9c0,0.2,0,0.3,0.1,0.4c0.1,0.1,0.1,0.2,0.2,0.3c0.1,0.1,0.2,0.1,0.3,0.1c0.1,0,0.2,0,0.3-0.1
			c0.1,0,0.2-0.1,0.2-0.2c0.1-0.1,0.1-0.2,0.1-0.3h0.5c0,0.2-0.1,0.4-0.2,0.5c-0.1,0.1-0.2,0.3-0.4,0.3c-0.2,0.1-0.3,0.1-0.5,0.1
			C35.9,37.3,35.8,37.3,35.8,37.3z"/>
		<path class="st0" d="M37.9,37.1c-0.1-0.1-0.2-0.3-0.2-0.5c0-0.2,0.1-0.4,0.2-0.5c0.1-0.1,0.3-0.2,0.6-0.2h0.7l0,0.4h-0.7
			c-0.1,0-0.2,0-0.3,0.1c-0.1,0.1-0.1,0.1-0.1,0.2c0,0.1,0,0.2,0.1,0.3c0.1,0.1,0.2,0.1,0.4,0.1c0.2,0,0.3,0,0.4-0.1
			c0.1,0,0.1-0.1,0.1-0.2l0,0.3c0,0.1-0.1,0.1-0.1,0.2c-0.1,0-0.1,0.1-0.2,0.1c-0.1,0-0.2,0-0.3,0C38.3,37.3,38,37.2,37.9,37.1z
			 M39.1,35.8c0-0.2,0-0.3-0.1-0.4c-0.1-0.1-0.2-0.1-0.3-0.1c-0.1,0-0.2,0-0.3,0c-0.1,0-0.2,0.1-0.2,0.1l-0.3-0.2
			c0.1-0.1,0.2-0.2,0.3-0.2c0.1-0.1,0.3-0.1,0.5-0.1c0.2,0,0.4,0,0.5,0.1c0.1,0.1,0.2,0.2,0.3,0.3c0.1,0.1,0.1,0.3,0.1,0.5v1.5h-0.4
			V35.8z"/>
		<path class="st0" d="M40.2,34.9h0.5v2.3h-0.5V34.9z M41.6,35.8c0-0.2,0-0.3-0.1-0.4c-0.1-0.1-0.2-0.1-0.4-0.1
			c-0.1,0-0.3,0-0.3,0.1c-0.1,0.1-0.1,0.2-0.1,0.3l0-0.4c0.1-0.1,0.2-0.2,0.3-0.3c0.1-0.1,0.2-0.1,0.4-0.1c0.2,0,0.4,0.1,0.6,0.2
			c0.1,0.2,0.2,0.4,0.2,0.7v1.4h-0.5V35.8z"/>
		<path class="st1" d="M43.6,34H44v3.2h-0.5V34z M43.9,36.8h0.7c0.2,0,0.4-0.1,0.6-0.2c0.1-0.1,0.2-0.3,0.2-0.5v-0.9
			c0-0.2-0.1-0.4-0.2-0.5c-0.1-0.1-0.3-0.2-0.6-0.2h-0.7V34h0.7c0.3,0,0.5,0,0.7,0.1c0.2,0.1,0.3,0.2,0.4,0.4
			c0.1,0.2,0.1,0.4,0.1,0.6v0.9c0,0.2,0,0.5-0.1,0.6c-0.1,0.2-0.2,0.3-0.4,0.4c-0.2,0.1-0.4,0.1-0.7,0.1h-0.7V36.8z"/>
		<path class="st1" d="M46.9,37.1c-0.1-0.1-0.2-0.2-0.3-0.3c-0.1-0.1-0.1-0.3-0.1-0.5v-0.4c0-0.2,0-0.4,0.1-0.5
			c0.1-0.1,0.2-0.3,0.3-0.3c0.1-0.1,0.3-0.1,0.5-0.1c0.2,0,0.4,0,0.5,0.1c0.1,0.1,0.2,0.2,0.3,0.3c0.1,0.1,0.1,0.3,0.1,0.5v0.4
			c0,0.2,0,0.4-0.1,0.5c-0.1,0.1-0.2,0.3-0.3,0.3c-0.1,0.1-0.3,0.1-0.5,0.1C47.2,37.3,47,37.2,46.9,37.1z M47.7,36.7
			c0.1-0.1,0.1-0.2,0.1-0.4v-0.4c0-0.2,0-0.3-0.1-0.4c-0.1-0.1-0.2-0.1-0.4-0.1c-0.2,0-0.3,0-0.4,0.1c-0.1,0.1-0.1,0.2-0.1,0.4v0.4
			c0,0.2,0,0.3,0.1,0.4c0.1,0.1,0.2,0.1,0.4,0.1C47.5,36.8,47.7,36.8,47.7,36.7z"/>
		<path class="st1" d="M49.7,34h0.5v0.5h-0.5V34z M49.7,34.9h0.5v2.3h-0.5V34.9z"/>
		<path class="st1" d="M50.7,34.9h1v0.4h-1V34.9z M51.1,37.1c-0.1-0.1-0.1-0.3-0.1-0.5v-2.4h0.5v2.4c0,0.1,0,0.1,0,0.1
			c0,0,0.1,0,0.1,0h0.2v0.4h-0.3C51.3,37.2,51.2,37.2,51.1,37.1z"/>
		<path class="st1" d="M52.3,36.8h0.5v0.5h-0.5V36.8z"/>
	</g>
	<g>
		<path class="st0" d="M29.6,28.8c-7-3.9-1.8-12.4-11.4-13.1C8.4,15.1,4,8,4,8s0.1,4.1,4.1,7.5c4,3.4,12.7,1.9,13.7,5.1
			c1,3.2,2,5.1,4,6.8C27.9,29,29.6,28.8,29.6,28.8z"/>
		<path class="st0" d="M23.9,25.8c-0.4-0.6-0.8-1.2-1.1-1.8c-0.3,0.2-0.7,0.4-1,0.6C14.9,29.2,9,26.9,9,26.9s1.8,2.5,5.9,2.6
			C17.9,29.6,21.4,26.8,23.9,25.8z"/>
		<path class="st0" d="M24,26c-4.5,5-9.9,4.6-9.9,4.6s2.2,1.7,5.7,0.8c2-0.5,3.8-2.6,5.4-4.1C24.7,26.9,24.3,26.4,24,26z"/>
		<g>
			<path class="st0" d="M18.2,21.5C18.2,21.5,18.2,21.5,18.2,21.5c0.3,0,0.5,0,0.8,0c0,0,0,0,0.1,0c0,0,0,0,0,0c0.4,0,2.2,0,2.6,0
				c-0.1-0.3-0.1-0.5-0.3-0.9c-0.2-0.7-0.8-1.1-1.6-1.4c-0.8-0.3-1.8-0.5-2.7-0.4C7,19.3,2,13.3,2,13.3s0.4,4.2,5.3,7
				C10.1,22,14.7,21.5,18.2,21.5z"/>
			<path class="st0" d="M21.8,21.8c-0.7,0.1-1.9,0.2-3.2,0.6l0,0C10.4,24.7,5.2,21,5.2,21s1.3,3.4,5.9,4.6c3.4,0.9,8.3-1.4,11.5-1.8
				C22.3,23.2,22.1,22.5,21.8,21.8z"/>
		</g>
		<path class="st0" d="M25.6,27.7c-2.9,3.8-4.7,4.2-4.7,4.2s1.8,0.5,4.8-1.2c2.5-1.5,2.4-1.7,2.4-1.7s-0.7-0.2-1.5-0.7
			C26,28,25.6,27.7,25.6,27.7z"/>
	</g>
	<g>
		<path class="st0" d="M42.1,28.7c6.9-3.9,2.5-12.5,11.8-13.1c9.3-0.6,14-7.7,14-7.7s-0.4,4.1-4.4,7.5c-4.1,3.4-12.2,1.8-13.4,5
			c-1.2,3.3-2.2,5.1-4.3,6.8C43.7,28.9,42.1,28.7,42.1,28.7z"/>
		<path class="st0" d="M47.8,25.7c0.5-0.6,0.8-1.2,1.2-1.8c0.3,0.2,0.6,0.4,0.9,0.6c6.1,4.6,11.9,2.4,11.9,2.4s-1.8,2.5-5.8,2.6
			C53.2,29.5,50.1,26.7,47.8,25.7z"/>
		<path class="st0" d="M47.6,25.9c4,5.1,9.1,4.7,9.1,4.7s-2.2,1.7-5.5,0.7c-1.8-0.5-3.4-2.6-4.9-4.2C46.8,26.7,47.2,26.3,47.6,25.9z
			"/>
		<g>
			<path class="st0" d="M53.4,21.4C53.4,21.4,53.4,21.4,53.4,21.4c-0.2,0-0.5,0-0.8,0c0,0,0,0-0.1,0c0,0,0,0,0,0c-0.3,0-2.1,0-2.5,0
				c0.1-0.3,0.2-0.5,0.3-0.9c0.2-0.7,0.8-1.1,1.6-1.4c0.8-0.3,1.7-0.5,2.6-0.4c9.6,0.5,14.9-5.5,14.9-5.5s-0.7,4.3-5.5,7
				C61.1,21.9,56.8,21.4,53.4,21.4z"/>
			<path class="st0" d="M49.9,21.7c0.7,0.1,2,0.3,3,0.6l0,0c7.5,2.3,12.9-1.3,12.9-1.3s-1.4,3.4-6,4.6c-3.3,0.9-7.9-1.5-10.8-1.9
				C49.4,23.1,49.6,22.4,49.9,21.7z"/>
		</g>
		<path class="st0" d="M46,27.6c2.5,3.8,4.2,4.3,4.2,4.3s-1.7,0.5-4.5-1.2c-2.3-1.5-2.2-1.7-2.2-1.7s0.7-0.2,1.5-0.7
			C45.6,27.9,46,27.6,46,27.6z"/>
	</g>
	<path class="st2" d="M31.7,24.5c0.8-1.4,1.5-2.6,2.2-3.8c-0.1,0-0.1-0.1-0.2-0.1c-0.3,0.4-0.5,0.8-0.9,1.4
		c-1.5-2.5-2.7-4.7-4.1-7.2c2.1,0,3.9-0.1,5.6,0c0.3,0,0.6,0.7,0.9,1c0.3,0.4,0.5,0.8,0.7,1.2C35.9,17,36,17,36,16.9
		c0.7-2.3,2.5-2.4,4.5-2.2c0.8,0.1,1.6,0,2.8,0c-1.9,3.2-3.6,6.1-5.3,9c0.1,0,0.1,0.1,0.2,0.1c0.3-0.3,0.5-0.7,0.8-1
		c0.3,0.5,0.8,1.1,1.2,1.7c1.3-2.3,2.8-4.4,3.8-6.6c1.1-2.5,2.6-3.6,5.3-3.1c0.6,0.1,1.3,0,2.3,0c-0.8,1.4-1.4,2.6-2,3.7
		c-2,3.4-4,6.8-5.9,10.2c-0.4,0.7-0.8,1-1.6,0.9c-0.5-0.1-1.1-0.1-1.7-0.1c-1.8,0.2-3.7,0.5-4.4-2.2c-0.6,2.6-2.5,2.2-4.2,2.2
		c-2.9,0-3,0.1-4.4-2.5c-2.2-3.7-4.3-7.5-6.5-11.2c-0.2-0.3-0.3-0.6-0.5-1.1c1.9,0,3.7,0,5.4,0c0.3,0,0.6,0.5,0.9,0.9
		C28.3,18.5,29.9,21.4,31.7,24.5z"/>
</g>
</svg>
