<?xml version="1.0" encoding="utf-8"?>
<!-- Generator: Adobe Illustrator 25.3.1, SVG Export Plug-In . SVG Version: 6.00 Build 0)  -->
<svg version="1.1" id="Group_6405" xmlns="http://www.w3.org/2000/svg" xmlns:xlink="http://www.w3.org/1999/xlink" x="0px" y="0px"
	 viewBox="0 0 56.5 29.8" style="enable-background:new 0 0 56.5 29.8;" xml:space="preserve">
<style type="text/css">
	.st0{fill:#D8B855;}
	.st1{fill:#463A3B;}
	.st2{fill:#333333;}
</style>
<g>
	<path class="st0" d="M21.7,1.3c1,0.8,2,1.7,3.1,2.5c-0.1,0.4-0.2,0.8-0.4,1.4c0.8-0.1,1.4-0.2,2-0.2C26.3,4.5,26.2,4,26,3.3
		c0.7-0.8,1.5-1.8,2.3-2.9c0.8,1,1.6,1.9,2.4,2.9c0.1,0.1-0.1,0.6-0.2,0.8c-0.5,1-0.4,1.2,0.7,1.1c0.3,0,0.7,0,1-0.1
		c-0.2-1.3-0.2-1.3,0.9-2.2c0.6-0.5,1.3-1,1.9-1.5c0,0,0.1,0,0.3,0c-0.1,1.1-0.3,2.1-0.4,3.1c-0.1,1-0.2,2.1-0.4,3.1
		c0,0.2-0.4,0.6-0.6,0.6c-3.7,0-7.3,0-11,0c-0.2,0-0.7-0.2-0.7-0.4c-0.3-2.1-0.5-4.3-0.8-6.4C21.5,1.4,21.6,1.4,21.7,1.3z"/>
	<path class="st0" d="M28.3,10.1c-1.7,0-3.5,0-5.2,0c-0.4,0-0.9,0-0.8-0.6C22.4,9.3,22.8,9,23.1,9c3.5,0,7,0,10.5,0
		c0.3,0,0.6,0,0.8,0.2c0.1,0.1,0.2,0.5,0.1,0.7c-0.1,0.2-0.4,0.3-0.6,0.3C32,10.1,30.1,10.1,28.3,10.1
		C28.3,10.1,28.3,10.1,28.3,10.1z"/>
	<g>
		<path class="st1" d="M16.2,28.5v1h-0.4v-1L15.1,27h0.4l0.6,1.1l0.6-1.1H17L16.2,28.5z"/>
		<path class="st1" d="M17.6,29.5c0,0-0.1,0-0.2-0.1c-0.1-0.1-0.2-0.2-0.3-0.3C17.1,29,17,28.9,17,28.7v-0.2c0-0.2,0-0.3,0.1-0.5
			c0.1-0.1,0.1-0.2,0.3-0.3c0.1-0.1,0.3-0.1,0.4-0.1c0.2,0,0.3,0,0.4,0.1c0.1,0.1,0.2,0.2,0.2,0.3c0.1,0.1,0.1,0.3,0.1,0.5v0.1h-1.2
			v-0.3h0.9c0-0.1,0-0.3-0.1-0.3C18,28,17.9,28,17.8,28c-0.1,0-0.2,0-0.3,0.1c-0.1,0.1-0.1,0.2-0.1,0.4v0.2c0,0.2,0,0.3,0.1,0.3
			c0.1,0.1,0.2,0.1,0.3,0.1c0.1,0,0.1,0,0.2,0c0.1,0,0.1-0.1,0.2-0.1l0.2,0.2c-0.1,0.1-0.2,0.2-0.3,0.2c-0.1,0-0.2,0.1-0.3,0.1
			C17.7,29.5,17.6,29.5,17.6,29.5z"/>
		<path class="st1" d="M19.5,29.5c0,0,0,0-0.1,0c-0.1,0-0.2-0.1-0.3-0.1c-0.1,0-0.2-0.1-0.2-0.2l0.2-0.3c0.1,0.1,0.2,0.1,0.3,0.2
			c0.1,0,0.2,0.1,0.3,0.1c0.1,0,0.2,0,0.3-0.1c0.1,0,0.1-0.1,0.1-0.2c0-0.1,0-0.1-0.1-0.1c0,0-0.1,0-0.1-0.1c-0.1,0-0.1,0-0.2,0
			c0,0,0,0,0,0c0,0,0,0,0,0c0,0,0,0,0,0c0,0,0,0,0,0c-0.1,0-0.2,0-0.3-0.1c-0.1,0-0.1-0.1-0.2-0.1C19,28.5,19,28.4,19,28.2
			c0-0.1,0-0.2,0.1-0.3c0.1-0.1,0.1-0.1,0.2-0.2c0.1,0,0.2-0.1,0.4-0.1c0.1,0,0.2,0,0.3,0c0.1,0,0.2,0,0.2,0.1
			c0.1,0,0.2,0.1,0.2,0.1l-0.2,0.3C20.1,28.1,20,28,19.9,28c-0.1,0-0.2,0-0.3,0c-0.1,0-0.2,0-0.3,0.1c-0.1,0-0.1,0.1-0.1,0.2
			c0,0,0,0.1,0.1,0.1c0,0,0.1,0,0.1,0c0.1,0,0.1,0,0.2,0c0,0,0,0,0,0c0,0,0,0,0,0c0,0,0,0,0,0c0,0,0,0,0,0c0.1,0,0.2,0,0.3,0.1
			c0.1,0,0.2,0.1,0.2,0.2c0.1,0.1,0.1,0.2,0.1,0.3c0,0.1,0,0.2-0.1,0.3c-0.1,0.1-0.1,0.1-0.3,0.2c-0.1,0-0.3,0.1-0.4,0.1
			C19.5,29.5,19.5,29.5,19.5,29.5z"/>
		<path class="st1" d="M20.8,29.1h0.4v0.4l-0.4,0.4V29.1z"/>
		<path class="st0" d="M23.4,27h0.2l0.5,2l0.4-2H25l-0.6,2.5H24l-0.5-1.8L23,29.5h-0.4L22.1,27h0.4l0.4,2L23.4,27z"/>
		<path class="st0" d="M25.6,29.5c0,0-0.1,0-0.2-0.1c-0.1-0.1-0.2-0.2-0.3-0.3c-0.1-0.1-0.1-0.3-0.1-0.4v-0.2c0-0.2,0-0.3,0.1-0.5
			c0.1-0.1,0.1-0.2,0.3-0.3c0.1-0.1,0.3-0.1,0.4-0.1c0.2,0,0.3,0,0.4,0.1c0.1,0.1,0.2,0.2,0.2,0.3c0.1,0.1,0.1,0.3,0.1,0.5v0.1h-1.2
			v-0.3h0.9c0-0.1,0-0.3-0.1-0.3C26.1,28,26,28,25.9,28c-0.1,0-0.2,0-0.3,0.1c-0.1,0.1-0.1,0.2-0.1,0.4v0.2c0,0.2,0,0.3,0.1,0.3
			c0.1,0.1,0.2,0.1,0.3,0.1c0.1,0,0.1,0,0.2,0c0.1,0,0.1-0.1,0.2-0.1l0.2,0.2c-0.1,0.1-0.2,0.2-0.3,0.2c-0.1,0-0.2,0.1-0.3,0.1
			C25.7,29.5,25.6,29.5,25.6,29.5z"/>
		<path class="st0" d="M28.3,29.5c0,0-0.1,0-0.2-0.1c-0.1-0.1-0.2-0.2-0.3-0.3c-0.1-0.1-0.1-0.3-0.1-0.5v-0.7c0-0.2,0-0.4,0.1-0.5
			c0.1-0.1,0.2-0.3,0.3-0.3c0.1-0.1,0.3-0.1,0.5-0.1c0.1,0,0.3,0,0.4,0.1c0.1,0.1,0.2,0.2,0.3,0.3c0.1,0.1,0.1,0.2,0.2,0.4h-0.4
			c0-0.1-0.1-0.1-0.1-0.2c-0.1-0.1-0.1-0.1-0.2-0.1c-0.1,0-0.1-0.1-0.2-0.1c-0.1,0-0.2,0-0.3,0.1c-0.1,0.1-0.1,0.1-0.2,0.2
			c0,0.1-0.1,0.2-0.1,0.3v0.7c0,0.1,0,0.2,0.1,0.3c0,0.1,0.1,0.2,0.2,0.2c0.1,0,0.2,0.1,0.3,0.1c0.1,0,0.1,0,0.2,0
			c0.1,0,0.1-0.1,0.2-0.1c0.1-0.1,0.1-0.1,0.1-0.2h0.4c0,0.2-0.1,0.3-0.2,0.4c-0.1,0.1-0.2,0.2-0.3,0.3c-0.1,0.1-0.3,0.1-0.4,0.1
			C28.4,29.5,28.3,29.5,28.3,29.5z"/>
		<path class="st0" d="M30,29.4c-0.1-0.1-0.2-0.2-0.2-0.4c0-0.2,0.1-0.3,0.2-0.4c0.1-0.1,0.3-0.1,0.5-0.1h0.5l0,0.3h-0.5
			c-0.1,0-0.2,0-0.2,0.1c0,0-0.1,0.1-0.1,0.2c0,0.1,0,0.2,0.1,0.2c0.1,0,0.2,0.1,0.3,0.1c0.1,0,0.2,0,0.3,0c0.1,0,0.1-0.1,0.1-0.1
			l0,0.3c0,0-0.1,0.1-0.1,0.1c0,0-0.1,0.1-0.2,0.1c-0.1,0-0.1,0-0.2,0C30.2,29.5,30.1,29.5,30,29.4z M30.9,28.3c0-0.1,0-0.2-0.1-0.3
			C30.8,28,30.7,28,30.5,28c-0.1,0-0.1,0-0.2,0c-0.1,0-0.1,0.1-0.2,0.1l-0.3-0.2c0.1-0.1,0.2-0.1,0.3-0.2c0.1,0,0.2-0.1,0.4-0.1
			c0.2,0,0.3,0,0.4,0.1c0.1,0.1,0.2,0.1,0.2,0.2c0.1,0.1,0.1,0.2,0.1,0.4v1.2h-0.3V28.3z"/>
		<path class="st0" d="M31.8,27.7h0.4v1.8h-0.4V27.7z M32.9,28.4c0-0.1,0-0.2-0.1-0.3C32.7,28,32.6,28,32.5,28c-0.1,0-0.2,0-0.3,0.1
			c-0.1,0.1-0.1,0.1-0.1,0.3l0-0.3c0.1-0.1,0.1-0.2,0.2-0.3c0.1-0.1,0.2-0.1,0.3-0.1c0.2,0,0.3,0.1,0.5,0.2c0.1,0.1,0.2,0.3,0.2,0.5
			v1.1h-0.4V28.4z"/>
		<path class="st1" d="M34.4,27h0.4v2.5h-0.4V27z M34.7,29.1h0.6c0.2,0,0.3,0,0.4-0.1c0.1-0.1,0.2-0.2,0.2-0.4v-0.7
			c0-0.2-0.1-0.3-0.2-0.4c-0.1-0.1-0.2-0.1-0.4-0.1h-0.6V27h0.6c0.2,0,0.4,0,0.5,0.1c0.1,0.1,0.3,0.2,0.3,0.3
			c0.1,0.1,0.1,0.3,0.1,0.5v0.7c0,0.2,0,0.4-0.1,0.5c-0.1,0.1-0.2,0.2-0.3,0.3c-0.1,0.1-0.3,0.1-0.5,0.1h-0.6V29.1z"/>
		<path class="st1" d="M37,29.4c-0.1-0.1-0.2-0.2-0.3-0.3c-0.1-0.1-0.1-0.3-0.1-0.4v-0.3c0-0.2,0-0.3,0.1-0.4
			c0.1-0.1,0.1-0.2,0.3-0.3c0.1-0.1,0.2-0.1,0.4-0.1c0.2,0,0.3,0,0.4,0.1c0.1,0.1,0.2,0.2,0.3,0.3c0.1,0.1,0.1,0.3,0.1,0.4v0.3
			c0,0.2,0,0.3-0.1,0.4c-0.1,0.1-0.1,0.2-0.3,0.3c-0.1,0.1-0.2,0.1-0.4,0.1C37.3,29.5,37.1,29.5,37,29.4z M37.7,29.1
			c0.1-0.1,0.1-0.2,0.1-0.3v-0.3c0-0.1,0-0.2-0.1-0.3C37.7,28,37.6,28,37.4,28c-0.1,0-0.2,0-0.3,0.1c-0.1,0.1-0.1,0.2-0.1,0.3v0.3
			c0,0.1,0,0.3,0.1,0.3c0.1,0.1,0.2,0.1,0.3,0.1C37.6,29.2,37.7,29.1,37.7,29.1z"/>
		<path class="st1" d="M39.3,27h0.4v0.4h-0.4V27z M39.3,27.7h0.4v1.8h-0.4V27.7z"/>
		<path class="st1" d="M40.1,27.7h0.8V28h-0.8V27.7z M40.3,29.4c-0.1-0.1-0.1-0.2-0.1-0.4v-1.9h0.4V29c0,0,0,0.1,0,0.1
			c0,0,0,0,0.1,0h0.2v0.3h-0.2C40.5,29.5,40.4,29.5,40.3,29.4z"/>
		<path class="st1" d="M41.3,29.1h0.4v0.4h-0.4V29.1z"/>
	</g>
	<g>
		<path class="st0" d="M23.4,22.9c-5.5-3.1-1.4-9.8-9-10.3C6.7,12.1,3.2,6.5,3.2,6.5s0.1,3.2,3.3,5.9c3.2,2.7,10,1.5,10.8,4
			c0.8,2.6,1.6,4,3.2,5.3C22.1,23,23.4,22.9,23.4,22.9z"/>
		<path class="st0" d="M18.9,20.5c-0.3-0.4-0.6-0.9-0.9-1.4c-0.3,0.1-0.5,0.3-0.8,0.5c-5.3,3.6-10,1.8-10,1.8s1.4,2,4.6,2
			C14.2,23.5,16.9,21.3,18.9,20.5z"/>
		<path class="st0" d="M19,20.6c-3.6,4-7.8,3.6-7.8,3.6s1.7,1.3,4.5,0.6c1.6-0.4,3-2,4.2-3.2C19.6,21.3,19.3,21,19,20.6z"/>
		<g>
			<path class="st0" d="M14.4,17.1C14.4,17.1,14.4,17.1,14.4,17.1c0.2,0,0.4,0,0.6,0c0,0,0,0,0,0c0,0,0,0,0,0c0.3,0,1.7,0,2.1,0
				c-0.1-0.3-0.1-0.4-0.2-0.7c-0.2-0.5-0.6-0.9-1.3-1.1C15,15.1,14.3,15,13.6,15c-8,0.3-12-4.4-12-4.4s0.3,3.3,4.2,5.5
				C8.1,17.4,11.6,17.1,14.4,17.1z"/>
			<path class="st0" d="M17.3,17.3c-0.6,0.1-1.5,0.2-2.5,0.5l0,0c-6.5,1.8-10.6-1.1-10.6-1.1s1,2.7,4.7,3.7c2.7,0.7,6.6-1.1,9-1.4
				C17.7,18.4,17.5,17.9,17.3,17.3z"/>
		</g>
		<path class="st0" d="M20.3,22c-2.3,3-3.7,3.3-3.7,3.3s1.4,0.4,3.8-0.9c2-1.1,1.9-1.3,1.9-1.3s-0.6-0.2-1.2-0.5
			C20.6,22.2,20.3,22,20.3,22z"/>
	</g>
	<g>
		<path class="st0" d="M33.3,22.7c5.4-3.1,2-9.9,9.3-10.3c7.3-0.5,11-6.1,11-6.1s-0.3,3.2-3.5,5.9c-3.2,2.7-9.6,1.4-10.6,4
			c-0.9,2.6-1.7,4-3.4,5.3C34.5,22.9,33.3,22.7,33.3,22.7z"/>
		<path class="st0" d="M37.7,20.4c0.4-0.4,0.7-0.9,0.9-1.4c0.2,0.1,0.5,0.3,0.7,0.5c4.8,3.6,9.4,1.9,9.4,1.9s-1.5,2-4.5,2
			C42.1,23.4,39.6,21.2,37.7,20.4z"/>
		<path class="st0" d="M37.6,20.5c3.2,4,7.2,3.7,7.2,3.7s-1.7,1.3-4.3,0.6c-1.5-0.4-2.7-2.1-3.8-3.3C37,21.2,37.3,20.9,37.6,20.5z"
			/>
		<g>
			<path class="st0" d="M42.2,17C42.2,17,42.2,17,42.2,17c-0.2,0-0.4,0-0.6,0c0,0,0,0,0,0c0,0,0,0,0,0c-0.3,0-1.7,0-2,0
				c0.1-0.3,0.1-0.4,0.2-0.7c0.2-0.5,0.7-0.9,1.3-1.1c0.7-0.3,1.3-0.4,2-0.3c7.6,0.4,11.7-4.3,11.7-4.3s-0.5,3.4-4.4,5.5
				C48.3,17.4,44.9,17,42.2,17z"/>
			<path class="st0" d="M39.5,17.2c0.5,0.1,1.6,0.2,2.4,0.5l0,0c5.9,1.8,10.1-1,10.1-1s-1.1,2.7-4.7,3.6c-2.6,0.7-6.2-1.2-8.5-1.5
				C39,18.3,39.2,17.8,39.5,17.2z"/>
		</g>
		<path class="st0" d="M36.3,21.9c2,3,3.3,3.4,3.3,3.4s-1.4,0.4-3.5-1c-1.8-1.2-1.7-1.4-1.7-1.4s0.5-0.2,1.2-0.5
			C36,22.1,36.3,21.9,36.3,21.9z"/>
	</g>
	<path class="st2" d="M25.1,19.4c0.6-1.1,1.2-2.1,1.7-3c0,0-0.1-0.1-0.1-0.1c-0.2,0.3-0.4,0.6-0.7,1.1c-1.1-2-2.1-3.7-3.3-5.7
		c1.6,0,3,0,4.4,0c0.2,0,0.5,0.5,0.7,0.8c0.2,0.3,0.4,0.6,0.6,1c0.1-0.1,0.1-0.1,0.2-0.1c0.6-1.8,2-1.9,3.5-1.8c0.6,0.1,1.2,0,2.2,0
		c-1.5,2.5-2.8,4.8-4.1,7.1c0,0,0.1,0.1,0.1,0.1c0.2-0.2,0.4-0.5,0.6-0.8c0.3,0.4,0.6,0.8,1,1.3c1-1.8,2.2-3.4,3-5.2
		c0.9-1.9,2.1-2.8,4.2-2.4c0.5,0.1,1,0,1.8,0c-0.6,1.1-1.1,2-1.6,2.9c-1.5,2.7-3.1,5.3-4.6,8c-0.3,0.5-0.6,0.8-1.3,0.7
		c-0.4-0.1-0.9-0.1-1.3,0c-1.4,0.1-2.9,0.4-3.5-1.7c-0.5,2.1-1.9,1.7-3.3,1.7c-2.3,0-2.3,0.1-3.5-1.9c-1.7-2.9-3.4-5.9-5.1-8.9
		c-0.1-0.2-0.2-0.4-0.4-0.9c1.5,0,2.9,0,4.3,0c0.2,0,0.5,0.4,0.7,0.7C22.4,14.7,23.7,17,25.1,19.4z"/>
</g>
</svg>
