<?xml version="1.0" encoding="utf-8"?>
<!-- Generator: Adobe Illustrator 25.3.1, SVG Export Plug-In . SVG Version: 6.00 Build 0)  -->
<svg version="1.1" id="Group_6405" xmlns="http://www.w3.org/2000/svg" xmlns:xlink="http://www.w3.org/1999/xlink" x="0px" y="0px"
	 viewBox="0 0 56.5 18.5" style="enable-background:new 0 0 56.5 18.5;" xml:space="preserve">
<style type="text/css">
	.st0{fill:#D8B855;}
	.st1{fill:#FFFFFF;}
</style>
<g>
	<path class="st0" d="M24.2,0.8c0.6,0.5,1.3,1,1.9,1.5c-0.1,0.3-0.1,0.5-0.2,0.9c0.5-0.1,0.9-0.1,1.2-0.1C27.1,2.7,27,2.4,26.9,2
		c0.4-0.5,0.9-1.1,1.4-1.8c0.5,0.6,1,1.2,1.5,1.8c0.1,0.1,0,0.4-0.1,0.5c-0.3,0.6-0.2,0.7,0.4,0.7c0.2,0,0.4,0,0.6,0
		c-0.1-0.8-0.1-0.8,0.5-1.3c0.4-0.3,0.8-0.6,1.2-0.9c0,0,0.1,0,0.2,0c-0.1,0.6-0.2,1.3-0.3,1.9c-0.1,0.6-0.1,1.3-0.2,1.9
		c0,0.1-0.2,0.3-0.4,0.3c-2.2,0-4.5,0-6.7,0c-0.2,0-0.4-0.1-0.4-0.2c-0.2-1.3-0.3-2.6-0.5-3.9C24.1,0.8,24.2,0.8,24.2,0.8z"/>
	<path class="st0" d="M28.3,6.2c-1.1,0-2.1,0-3.2,0c-0.3,0-0.6,0-0.5-0.4c0-0.1,0.3-0.3,0.4-0.3c2.1,0,4.3,0,6.4,0
		c0.2,0,0.4,0,0.5,0.1c0.1,0.1,0.1,0.3,0,0.4c0,0.1-0.2,0.2-0.4,0.2C30.6,6.2,29.4,6.2,28.3,6.2C28.3,6.2,28.3,6.2,28.3,6.2z"/>
	<g>
		<path class="st1" d="M20.9,17.4V18h-0.2v-0.6l-0.5-0.9h0.2l0.3,0.7l0.3-0.7h0.2L20.9,17.4z"/>
		<path class="st1" d="M21.7,18.1c0,0,0,0-0.1-0.1c-0.1,0-0.1-0.1-0.2-0.2c0-0.1-0.1-0.2-0.1-0.3v-0.1c0-0.1,0-0.2,0.1-0.3
			c0-0.1,0.1-0.1,0.2-0.2c0.1,0,0.2-0.1,0.3-0.1c0.1,0,0.2,0,0.2,0.1c0.1,0,0.1,0.1,0.2,0.2c0,0.1,0.1,0.2,0.1,0.3v0.1h-0.7v-0.2
			h0.5c0-0.1,0-0.2-0.1-0.2c0-0.1-0.1-0.1-0.2-0.1c-0.1,0-0.1,0-0.2,0.1c0,0.1-0.1,0.1-0.1,0.2v0.1c0,0.1,0,0.2,0.1,0.2
			c0,0,0.1,0.1,0.2,0.1c0,0,0.1,0,0.1,0c0,0,0.1,0,0.1-0.1l0.1,0.1C22.2,18,22.2,18,22.1,18c-0.1,0-0.1,0-0.2,0
			C21.8,18.1,21.7,18.1,21.7,18.1z"/>
		<path class="st1" d="M22.9,18.1C22.9,18.1,22.9,18.1,22.9,18.1c-0.1,0-0.2-0.1-0.2-0.1c0,0-0.1-0.1-0.1-0.1l0.1-0.2
			c0.1,0,0.1,0.1,0.2,0.1c0.1,0,0.1,0,0.2,0c0.1,0,0.2,0,0.2,0c0,0,0.1-0.1,0.1-0.1c0,0,0-0.1,0-0.1c0,0-0.1,0-0.1,0
			c0,0-0.1,0-0.1,0c0,0,0,0,0,0c0,0,0,0,0,0c0,0,0,0,0,0c0,0,0,0,0,0c-0.1,0-0.1,0-0.2,0c0,0-0.1,0-0.1-0.1c0,0,0-0.1,0-0.2
			c0-0.1,0-0.1,0-0.2c0-0.1,0.1-0.1,0.1-0.1c0.1,0,0.1,0,0.2,0c0.1,0,0.1,0,0.2,0s0.1,0,0.2,0c0,0,0.1,0,0.1,0.1l-0.1,0.2
			c-0.1,0-0.1-0.1-0.2-0.1c-0.1,0-0.1,0-0.2,0c-0.1,0-0.1,0-0.2,0c0,0-0.1,0.1-0.1,0.1c0,0,0,0.1,0,0.1c0,0,0,0,0.1,0
			c0,0,0.1,0,0.1,0c0,0,0,0,0,0c0,0,0,0,0,0c0,0,0,0,0,0c0,0,0,0,0,0c0.1,0,0.1,0,0.2,0c0.1,0,0.1,0,0.1,0.1c0,0,0.1,0.1,0.1,0.2
			c0,0.1,0,0.1-0.1,0.2c0,0.1-0.1,0.1-0.2,0.1C23.2,18.1,23.1,18.1,22.9,18.1C22.9,18.1,22.9,18.1,22.9,18.1z"/>
		<path class="st1" d="M23.7,17.8h0.2V18l-0.2,0.2V17.8z"/>
		<path class="st0" d="M25.3,16.5h0.1l0.3,1.2l0.3-1.2h0.2L25.9,18h-0.2L25.4,17L25.1,18h-0.2l-0.4-1.6h0.2l0.3,1.2L25.3,16.5z"/>
		<path class="st0" d="M26.7,18.1c0,0,0,0-0.1-0.1c-0.1,0-0.1-0.1-0.2-0.2c0-0.1-0.1-0.2-0.1-0.3v-0.1c0-0.1,0-0.2,0.1-0.3
			c0-0.1,0.1-0.1,0.2-0.2c0.1,0,0.2-0.1,0.3-0.1c0.1,0,0.2,0,0.2,0.1c0.1,0,0.1,0.1,0.2,0.2c0,0.1,0.1,0.2,0.1,0.3v0.1h-0.7v-0.2H27
			c0-0.1,0-0.2-0.1-0.2c0-0.1-0.1-0.1-0.2-0.1c-0.1,0-0.1,0-0.2,0.1c0,0.1-0.1,0.1-0.1,0.2v0.1c0,0.1,0,0.2,0.1,0.2
			c0,0,0.1,0.1,0.2,0.1c0,0,0.1,0,0.1,0c0,0,0.1,0,0.1-0.1l0.1,0.1C27.2,18,27.1,18,27,18c-0.1,0-0.1,0-0.2,0
			C26.7,18.1,26.7,18.1,26.7,18.1z"/>
		<path class="st0" d="M28.3,18.1c0,0,0,0-0.1-0.1c-0.1,0-0.1-0.1-0.2-0.2c0-0.1-0.1-0.2-0.1-0.3v-0.4c0-0.1,0-0.2,0.1-0.3
			c0-0.1,0.1-0.2,0.2-0.2c0.1,0,0.2-0.1,0.3-0.1c0.1,0,0.2,0,0.2,0.1c0.1,0,0.1,0.1,0.2,0.2c0.1,0.1,0.1,0.2,0.1,0.2h-0.2
			c0,0,0-0.1-0.1-0.1c0,0-0.1-0.1-0.1-0.1c0,0-0.1,0-0.1,0c-0.1,0-0.1,0-0.2,0c0,0-0.1,0.1-0.1,0.1c0,0.1,0,0.1,0,0.2v0.4
			c0,0.1,0,0.1,0,0.2c0,0.1,0.1,0.1,0.1,0.1c0,0,0.1,0,0.2,0c0,0,0.1,0,0.1,0c0,0,0.1,0,0.1-0.1c0,0,0.1-0.1,0.1-0.1H29
			c0,0.1-0.1,0.2-0.1,0.2c-0.1,0.1-0.1,0.1-0.2,0.2c-0.1,0-0.2,0.1-0.2,0.1C28.3,18.1,28.3,18.1,28.3,18.1z"/>
		<path class="st0" d="M29.3,18c-0.1-0.1-0.1-0.1-0.1-0.3c0-0.1,0-0.2,0.1-0.2c0.1-0.1,0.2-0.1,0.3-0.1h0.3l0,0.2h-0.3
			c-0.1,0-0.1,0-0.1,0c0,0,0,0.1,0,0.1c0,0.1,0,0.1,0.1,0.1c0,0,0.1,0,0.2,0c0.1,0,0.1,0,0.2,0c0,0,0.1,0,0.1-0.1l0,0.2
			c0,0,0,0.1-0.1,0.1c0,0-0.1,0-0.1,0c0,0-0.1,0-0.1,0C29.5,18.1,29.4,18,29.3,18z M29.9,17.3c0-0.1,0-0.1-0.1-0.2
			c0,0-0.1-0.1-0.2-0.1c0,0-0.1,0-0.1,0c0,0-0.1,0-0.1,0.1l-0.2-0.1c0-0.1,0.1-0.1,0.2-0.1c0.1,0,0.1,0,0.2,0c0.1,0,0.2,0,0.2,0
			c0.1,0,0.1,0.1,0.1,0.1c0,0.1,0.1,0.1,0.1,0.2V18h-0.2V17.3z"/>
		<path class="st0" d="M30.4,16.9h0.2V18h-0.2V16.9z M31.1,17.4c0-0.1,0-0.1-0.1-0.2c0,0-0.1-0.1-0.2-0.1c-0.1,0-0.1,0-0.2,0.1
			c0,0-0.1,0.1-0.1,0.2l0-0.2c0-0.1,0.1-0.1,0.1-0.2c0.1,0,0.1-0.1,0.2-0.1c0.1,0,0.2,0,0.3,0.1c0.1,0.1,0.1,0.2,0.1,0.3V18h-0.2
			V17.4z"/>
		<path class="st1" d="M32.1,16.5h0.2V18h-0.2V16.5z M32.2,17.8h0.4c0.1,0,0.2,0,0.3-0.1c0.1-0.1,0.1-0.1,0.1-0.3V17
			c0-0.1,0-0.2-0.1-0.3c-0.1-0.1-0.2-0.1-0.3-0.1h-0.4v-0.2h0.3c0.1,0,0.2,0,0.3,0.1c0.1,0,0.2,0.1,0.2,0.2c0,0.1,0.1,0.2,0.1,0.3
			v0.4c0,0.1,0,0.2-0.1,0.3c0,0.1-0.1,0.1-0.2,0.2c-0.1,0-0.2,0.1-0.3,0.1h-0.3V17.8z"/>
		<path class="st1" d="M33.7,18c-0.1,0-0.1-0.1-0.2-0.2c0-0.1-0.1-0.2-0.1-0.3v-0.2c0-0.1,0-0.2,0.1-0.3c0-0.1,0.1-0.1,0.2-0.2
			c0.1,0,0.2-0.1,0.2-0.1s0.2,0,0.2,0.1c0.1,0,0.1,0.1,0.2,0.2c0,0.1,0.1,0.2,0.1,0.3v0.2c0,0.1,0,0.2-0.1,0.3
			c0,0.1-0.1,0.1-0.2,0.2c-0.1,0-0.2,0.1-0.2,0.1S33.7,18,33.7,18z M34.1,17.8c0,0,0.1-0.1,0.1-0.2v-0.2c0-0.1,0-0.2-0.1-0.2
			c0,0-0.1-0.1-0.2-0.1c-0.1,0-0.1,0-0.2,0.1c0,0-0.1,0.1-0.1,0.2v0.2c0,0.1,0,0.2,0.1,0.2c0,0,0.1,0.1,0.2,0.1
			C34,17.9,34,17.8,34.1,17.8z"/>
		<path class="st1" d="M35,16.5h0.2v0.2H35V16.5z M35,16.9h0.2V18H35V16.9z"/>
		<path class="st1" d="M35.5,16.9H36v0.2h-0.5V16.9z M35.7,18c0,0-0.1-0.1-0.1-0.2v-1.1h0.2v1.1c0,0,0,0,0,0.1c0,0,0,0,0,0H36v0.2
			h-0.1C35.8,18.1,35.7,18,35.7,18z"/>
		<path class="st1" d="M36.3,17.8h0.2V18h-0.2V17.8z"/>
	</g>
	<g>
		<path class="st0" d="M25.3,14c-3.4-1.9-0.9-6-5.5-6.3c-4.7-0.3-6.8-3.7-6.8-3.7s0,2,2,3.6c1.9,1.6,6.1,0.9,6.6,2.5
			c0.5,1.6,1,2.5,2,3.3C24.5,14.1,25.3,14,25.3,14z"/>
		<path class="st0" d="M22.5,12.5c-0.2-0.3-0.4-0.6-0.5-0.9c-0.2,0.1-0.3,0.2-0.5,0.3c-3.3,2.2-6.1,1.1-6.1,1.1s0.9,1.2,2.8,1.3
			C19.6,14.4,21.3,13,22.5,12.5z"/>
		<path class="st0" d="M22.6,12.6c-2.2,2.4-4.8,2.2-4.8,2.2s1,0.8,2.8,0.4c1-0.3,1.8-1.2,2.6-2C23,13,22.8,12.8,22.6,12.6z"/>
		<g>
			<path class="st0" d="M19.8,10.4C19.8,10.4,19.8,10.4,19.8,10.4c0.1,0,0.3,0,0.4,0c0,0,0,0,0,0c0,0,0,0,0,0c0.2,0,1.1,0,1.3,0
				c-0.1-0.2-0.1-0.2-0.1-0.4c-0.1-0.3-0.4-0.5-0.8-0.7c-0.4-0.2-0.8-0.2-1.3-0.2c-4.9,0.2-7.4-2.7-7.4-2.7s0.2,2.1,2.6,3.4
				C15.9,10.7,18.1,10.5,19.8,10.4z"/>
			<path class="st0" d="M21.6,10.6c-0.3,0-0.9,0.1-1.6,0.3l0,0c-4,1.1-6.5-0.7-6.5-0.7s0.6,1.6,2.9,2.2c1.7,0.4,4-0.7,5.5-0.9
				C21.8,11.3,21.7,10.9,21.6,10.6z"/>
		</g>
		<path class="st0" d="M23.4,13.5c-1.4,1.8-2.3,2.1-2.3,2.1s0.9,0.3,2.3-0.6c1.2-0.7,1.2-0.8,1.2-0.8s-0.3-0.1-0.7-0.3
			C23.5,13.6,23.4,13.5,23.4,13.5z"/>
	</g>
	<g>
		<path class="st0" d="M31.4,13.9c3.3-1.9,1.2-6,5.7-6.3c4.5-0.3,6.8-3.7,6.8-3.7s-0.2,2-2.1,3.6c-2,1.6-5.9,0.9-6.5,2.4
			c-0.6,1.6-1.1,2.5-2.1,3.3C32.1,14,31.4,13.9,31.4,13.9z"/>
		<path class="st0" d="M34.1,12.5c0.2-0.3,0.4-0.6,0.6-0.9c0.1,0.1,0.3,0.2,0.5,0.3c3,2.2,5.8,1.2,5.8,1.2s-0.9,1.2-2.8,1.2
			C36.7,14.3,35.2,12.9,34.1,12.5z"/>
		<path class="st0" d="M34,12.6c1.9,2.5,4.4,2.3,4.4,2.3s-1,0.8-2.7,0.3c-0.9-0.3-1.7-1.3-2.3-2C33.6,13,33.8,12.8,34,12.6z"/>
		<g>
			<path class="st0" d="M36.8,10.4C36.8,10.4,36.8,10.4,36.8,10.4c-0.1,0-0.2,0-0.4,0c0,0,0,0,0,0c0,0,0,0,0,0c-0.2,0-1,0-1.2,0
				c0.1-0.2,0.1-0.2,0.1-0.4c0.1-0.3,0.4-0.5,0.8-0.7c0.4-0.2,0.8-0.2,1.2-0.2c4.7,0.2,7.2-2.6,7.2-2.6s-0.3,2.1-2.7,3.4
				C40.6,10.6,38.5,10.4,36.8,10.4z"/>
			<path class="st0" d="M35.1,10.5c0.3,0,1,0.2,1.5,0.3l0,0c3.6,1.1,6.2-0.6,6.2-0.6s-0.7,1.7-2.9,2.2c-1.6,0.4-3.8-0.7-5.2-0.9
				C34.9,11.2,35,10.9,35.1,10.5z"/>
		</g>
		<path class="st0" d="M33.2,13.4c1.2,1.9,2,2.1,2,2.1s-0.8,0.3-2.2-0.6C32,14.2,32,14,32,14s0.3-0.1,0.7-0.3
			C33,13.5,33.2,13.4,33.2,13.4z"/>
	</g>
	<path class="st1" d="M26.3,11.9c0.4-0.7,0.7-1.3,1.1-1.8c0,0-0.1,0-0.1-0.1c-0.1,0.2-0.3,0.4-0.5,0.7c-0.7-1.2-1.3-2.3-2-3.5
		c1,0,1.9,0,2.7,0c0.2,0,0.3,0.3,0.4,0.5c0.1,0.2,0.2,0.4,0.3,0.6c0.1,0,0.1,0,0.1-0.1c0.4-1.1,1.2-1.2,2.2-1.1c0.4,0,0.8,0,1.3,0
		c-0.9,1.6-1.7,2.9-2.5,4.3c0,0,0,0,0.1,0c0.1-0.1,0.2-0.3,0.4-0.5c0.2,0.2,0.4,0.5,0.6,0.8c0.6-1.1,1.3-2.1,1.8-3.2
		c0.5-1.2,1.3-1.7,2.6-1.5c0.3,0.1,0.6,0,1.1,0c-0.4,0.7-0.7,1.2-1,1.8c-0.9,1.6-1.9,3.3-2.9,4.9c-0.2,0.3-0.4,0.5-0.8,0.4
		c-0.3,0-0.5-0.1-0.8,0c-0.9,0.1-1.8,0.2-2.1-1.1c-0.3,1.3-1.2,1.1-2,1.1c-1.4,0-1.4,0-2.1-1.2c-1.1-1.8-2.1-3.6-3.1-5.4
		c-0.1-0.1-0.1-0.3-0.2-0.5c0.9,0,1.8,0,2.6,0c0.1,0,0.3,0.3,0.4,0.4C24.7,9,25.5,10.4,26.3,11.9z"/>
</g>
</svg>
